<mxfile host="Electron" agent="Mozilla/5.0 (Windows NT 10.0; Win64; x64) AppleWebKit/537.36 (KHTML, like Gecko) draw.io/24.7.8 Chrome/128.0.6613.36 Electron/32.0.1 Safari/537.36" version="24.7.8">
  <diagram name="Strona-1" id="ziaxBtI8zUnOOVFH1QOI">
    <mxGraphModel dx="1569" dy="2599" grid="1" gridSize="10" guides="1" tooltips="1" connect="1" arrows="1" fold="1" page="1" pageScale="1" pageWidth="827" pageHeight="1169" math="0" shadow="0">
      <root>
        <mxCell id="0" />
        <mxCell id="1" parent="0" />
        <mxCell id="mKLszbLdybDWWk_NxFO7-93" value="&lt;font style=&quot;font-size: 16px;&quot;&gt;uc Darczyńca&lt;/font&gt;" style="shape=umlFrame;whiteSpace=wrap;html=1;pointerEvents=0;recursiveResize=0;container=1;collapsible=0;width=300;height=35;" vertex="1" parent="1">
          <mxGeometry x="140" y="-60" width="990" height="650" as="geometry" />
        </mxCell>
        <mxCell id="mKLszbLdybDWWk_NxFO7-1" value="" style="swimlane;startSize=0;" vertex="1" parent="mKLszbLdybDWWk_NxFO7-93">
          <mxGeometry x="112.5" y="90" width="765" height="360" as="geometry">
            <mxRectangle x="180" y="54" width="50" height="40" as="alternateBounds" />
          </mxGeometry>
        </mxCell>
        <mxCell id="mKLszbLdybDWWk_NxFO7-88" value="&lt;b&gt;&lt;font style=&quot;font-size: 18px;&quot;&gt;System koordynacji pomocy humanitarnej&lt;/font&gt;&lt;/b&gt;" style="text;html=1;align=center;verticalAlign=middle;resizable=0;points=[];autosize=1;strokeColor=none;fillColor=none;" vertex="1" parent="mKLszbLdybDWWk_NxFO7-1">
          <mxGeometry x="187.5" y="20" width="390" height="40" as="geometry" />
        </mxCell>
        <mxCell id="mKLszbLdybDWWk_NxFO7-23" value="Przekaż środki finansowe" style="ellipse;whiteSpace=wrap;html=1;" vertex="1" parent="mKLszbLdybDWWk_NxFO7-1">
          <mxGeometry x="205" y="100" width="120" height="80" as="geometry" />
        </mxCell>
        <mxCell id="mKLszbLdybDWWk_NxFO7-24" value="Przekaż wsparcie rzeczowe" style="ellipse;whiteSpace=wrap;html=1;" vertex="1" parent="mKLszbLdybDWWk_NxFO7-1">
          <mxGeometry x="445" y="100" width="120" height="80" as="geometry" />
        </mxCell>
        <mxCell id="mKLszbLdybDWWk_NxFO7-27" value="Wyświetl przekazane darowizny" style="ellipse;whiteSpace=wrap;html=1;" vertex="1" parent="mKLszbLdybDWWk_NxFO7-1">
          <mxGeometry x="530" y="185" width="120" height="80" as="geometry" />
        </mxCell>
        <mxCell id="mKLszbLdybDWWk_NxFO7-28" value="Przekaż dary" style="ellipse;whiteSpace=wrap;html=1;" vertex="1" parent="mKLszbLdybDWWk_NxFO7-1">
          <mxGeometry x="325" y="185" width="120" height="80" as="geometry" />
        </mxCell>
        <mxCell id="mKLszbLdybDWWk_NxFO7-29" value="&amp;lt;&amp;lt;extend&amp;gt;&amp;gt;" style="endArrow=open;endSize=12;dashed=1;html=1;rounded=0;entryX=0;entryY=0.5;entryDx=0;entryDy=0;exitX=1;exitY=0.5;exitDx=0;exitDy=0;" edge="1" parent="mKLszbLdybDWWk_NxFO7-1" source="mKLszbLdybDWWk_NxFO7-28" target="mKLszbLdybDWWk_NxFO7-27">
          <mxGeometry width="160" relative="1" as="geometry">
            <mxPoint x="35" y="1" as="sourcePoint" />
            <mxPoint x="35" y="-214" as="targetPoint" />
          </mxGeometry>
        </mxCell>
        <mxCell id="mKLszbLdybDWWk_NxFO7-30" value="" style="endArrow=block;endSize=16;endFill=0;html=1;rounded=0;entryX=0;entryY=0;entryDx=0;entryDy=0;exitX=1;exitY=1;exitDx=0;exitDy=0;" edge="1" parent="mKLszbLdybDWWk_NxFO7-1" source="mKLszbLdybDWWk_NxFO7-23" target="mKLszbLdybDWWk_NxFO7-28">
          <mxGeometry width="160" relative="1" as="geometry">
            <mxPoint x="35" y="-294" as="sourcePoint" />
            <mxPoint x="113" y="-342" as="targetPoint" />
          </mxGeometry>
        </mxCell>
        <mxCell id="mKLszbLdybDWWk_NxFO7-31" value="" style="endArrow=block;endSize=16;endFill=0;html=1;rounded=0;entryX=1;entryY=0;entryDx=0;entryDy=0;exitX=0;exitY=1;exitDx=0;exitDy=0;" edge="1" parent="mKLszbLdybDWWk_NxFO7-1" source="mKLszbLdybDWWk_NxFO7-24" target="mKLszbLdybDWWk_NxFO7-28">
          <mxGeometry width="160" relative="1" as="geometry">
            <mxPoint x="325" y="-349" as="sourcePoint" />
            <mxPoint x="197" y="-342" as="targetPoint" />
          </mxGeometry>
        </mxCell>
        <mxCell id="mKLszbLdybDWWk_NxFO7-32" value="Generuj potwierdzenie" style="ellipse;whiteSpace=wrap;html=1;" vertex="1" parent="mKLszbLdybDWWk_NxFO7-1">
          <mxGeometry x="115" y="185" width="120" height="80" as="geometry" />
        </mxCell>
        <mxCell id="mKLszbLdybDWWk_NxFO7-33" value="&amp;lt;&amp;lt;extend&amp;gt;&amp;gt;" style="endArrow=open;endSize=12;dashed=1;html=1;rounded=0;entryX=1;entryY=0.5;entryDx=0;entryDy=0;exitX=0;exitY=0.5;exitDx=0;exitDy=0;" edge="1" parent="mKLszbLdybDWWk_NxFO7-1" source="mKLszbLdybDWWk_NxFO7-28" target="mKLszbLdybDWWk_NxFO7-32">
          <mxGeometry width="160" relative="1" as="geometry">
            <mxPoint x="340" y="161" as="sourcePoint" />
            <mxPoint x="450" y="161" as="targetPoint" />
          </mxGeometry>
        </mxCell>
        <mxCell id="mKLszbLdybDWWk_NxFO7-89" value="Darczyńca" style="shape=umlActor;verticalLabelPosition=bottom;verticalAlign=top;html=1;perimeterSpacing=8;" vertex="1" parent="mKLszbLdybDWWk_NxFO7-1">
          <mxGeometry x="370" y="440" width="30" height="60" as="geometry" />
        </mxCell>
        <mxCell id="mKLszbLdybDWWk_NxFO7-90" value="" style="endArrow=none;html=1;rounded=0;entryX=0.5;entryY=0;entryDx=0;entryDy=0;entryPerimeter=0;exitX=1;exitY=1;exitDx=0;exitDy=0;" edge="1" parent="mKLszbLdybDWWk_NxFO7-1" source="mKLszbLdybDWWk_NxFO7-32" target="mKLszbLdybDWWk_NxFO7-89">
          <mxGeometry width="50" height="50" relative="1" as="geometry">
            <mxPoint x="-45" y="60" as="sourcePoint" />
            <mxPoint x="5" y="10" as="targetPoint" />
          </mxGeometry>
        </mxCell>
        <mxCell id="mKLszbLdybDWWk_NxFO7-91" value="" style="endArrow=none;html=1;rounded=0;entryX=0.5;entryY=0;entryDx=0;entryDy=0;entryPerimeter=0;exitX=0.5;exitY=1;exitDx=0;exitDy=0;" edge="1" parent="mKLszbLdybDWWk_NxFO7-1" source="mKLszbLdybDWWk_NxFO7-28" target="mKLszbLdybDWWk_NxFO7-89">
          <mxGeometry width="50" height="50" relative="1" as="geometry">
            <mxPoint x="-45" y="60" as="sourcePoint" />
            <mxPoint x="5" y="10" as="targetPoint" />
          </mxGeometry>
        </mxCell>
        <mxCell id="mKLszbLdybDWWk_NxFO7-92" value="" style="endArrow=none;html=1;rounded=0;exitX=0.5;exitY=0;exitDx=0;exitDy=0;exitPerimeter=0;entryX=0;entryY=1;entryDx=0;entryDy=0;" edge="1" parent="mKLszbLdybDWWk_NxFO7-1" source="mKLszbLdybDWWk_NxFO7-89" target="mKLszbLdybDWWk_NxFO7-27">
          <mxGeometry width="50" height="50" relative="1" as="geometry">
            <mxPoint x="125" y="270" as="sourcePoint" />
            <mxPoint x="175" y="220" as="targetPoint" />
          </mxGeometry>
        </mxCell>
      </root>
    </mxGraphModel>
  </diagram>
</mxfile>
